<svg width="20" height="20" viewBox="0 0 20 20" fill="none" xmlns="http://www.w3.org/2000/svg">
<circle cx="10" cy="9.99988" r="10" fill="#C6A128"/>
<path d="M11.8077 4.4743C13.2222 4.4743 14.5787 5.03621 15.5789 6.0364C16.5791 7.0366 17.141 8.39315 17.141 9.80764C17.141 11.2221 16.5791 12.5787 15.5789 13.5789C14.5787 14.5791 13.2222 15.141 11.8077 15.141C10.3932 15.141 9.03666 14.5791 8.03646 13.5789C7.03627 12.5787 6.47436 11.2221 6.47436 9.80764C6.47436 8.39315 7.03627 7.0366 8.03646 6.0364C9.03666 5.03621 10.3932 4.4743 11.8077 4.4743ZM11.8077 13.8076C12.8686 13.8076 13.886 13.3862 14.6361 12.6361C15.3863 11.8859 15.8077 10.8685 15.8077 9.80764C15.8077 8.74677 15.3863 7.72936 14.6361 6.97921C13.886 6.22906 12.8686 5.80764 11.8077 5.80764C10.7468 5.80764 9.72942 6.22906 8.97927 6.97921C8.22913 7.72936 7.8077 8.74677 7.8077 9.80764C7.8077 10.8685 8.22913 11.8859 8.97927 12.6361C9.72942 13.3862 10.7468 13.8076 11.8077 13.8076ZM3.8077 9.80764C3.8077 11.5476 4.92103 13.0276 6.47436 13.5743V14.9676C4.17437 14.3743 2.47437 12.2943 2.47437 9.80764C2.47437 7.32097 4.17437 5.24097 6.47436 4.64764V6.04097C4.92103 6.58764 3.8077 8.06764 3.8077 9.80764Z" fill="#F2F2F2"/>
</svg>
